<svg width="24" height="25" viewBox="0 0 24 25" fill="none" xmlns="http://www.w3.org/2000/svg">
<path d="M12 22.5L10 20.2778H14L12 22.5Z" fill="#9DA8B8"/>
<rect y="2.5" width="24" height="17.7778" rx="5" fill="#9DA8B8"/>
<path d="M12.9401 9.37778C11.9186 9.37778 11.0898 10.2874 11.0898 11.412C11.0898 12.5365 11.9186 13.4462 12.9401 13.4462C13.9617 13.4462 14.7905 12.5365 14.7905 11.412C14.7905 10.2874 13.9681 9.37778 12.9401 9.37778ZM12.9401 12.3861C12.4519 12.3861 12.0535 11.9492 12.0535 11.412C12.0535 10.8748 12.4519 10.4379 12.9401 10.4379C13.4284 10.4379 13.8268 10.8748 13.8268 11.412C13.8268 11.9492 13.4348 12.3861 12.9401 12.3861Z" fill="white"/>
<path d="M7.08802 9.37756C6.68969 9.37756 6.31706 9.54946 6.02795 9.84313V8.1599H5V13.3529H6.02795V12.9876C6.31706 13.2741 6.68326 13.4531 7.08802 13.4531C8.00675 13.4531 8.75201 12.5435 8.75201 11.4189C8.75201 10.2944 8.01317 9.37756 7.08802 9.37756ZM6.88243 12.4289C6.50337 12.4289 6.17571 12.1782 6.03437 11.8129C5.9894 11.6911 5.95728 11.555 5.95728 11.4118C5.95728 11.2685 5.98297 11.1324 6.03437 11.0107C6.17571 10.6454 6.50337 10.3947 6.88243 10.3947C7.3964 10.3947 7.80758 10.8459 7.80758 11.4118C7.80758 11.9776 7.3964 12.4289 6.88243 12.4289Z" fill="white"/>
<path d="M17.9972 9.4635V9.78582C17.7081 9.53513 17.3483 9.38471 16.9629 9.38471C16.0184 9.38471 15.2539 10.2657 15.2539 11.3473C15.2539 12.4289 16.0184 13.3099 16.9629 13.3099C17.3548 13.3099 17.7146 13.1594 17.9972 12.9088V13.4531C17.9972 13.4531 17.8944 13.9903 17.1749 13.9903V15.0003C17.1749 15.0003 17.9523 15.1005 18.6461 14.327C18.6461 14.327 18.9674 13.9473 19.038 13.446V9.4635H17.9972ZM17.1556 12.3429C16.6352 12.3429 16.2176 11.8917 16.2176 11.3401C16.2176 10.7886 16.6416 10.3373 17.1556 10.3373C17.5218 10.3373 17.843 10.5666 17.9972 10.896C18.0615 11.0321 18.0936 11.1825 18.0936 11.3401C18.0936 11.4977 18.0551 11.6553 17.9972 11.7842C17.843 12.1209 17.5218 12.3429 17.1556 12.3429Z" fill="white"/>
<path d="M8.86719 8.05968V9.09827C8.86719 9.09827 9.34261 9.16989 9.43256 9.68561V13.3529H10.4926V9.68561V9.65695C10.4284 9.14124 10.1521 8.75446 10.1521 8.75446C9.5482 7.9594 8.86719 8.05968 8.86719 8.05968Z" fill="white"/>
</svg>
