<svg width="24" height="25" viewBox="0 0 24 25" fill="none" xmlns="http://www.w3.org/2000/svg">
<path fill-rule="evenodd" clip-rule="evenodd" d="M9.4815 3.85567C7.73495 4.36235 6.1823 5.38152 5.02609 6.78022C3.86989 8.17891 3.16382 9.89218 3 11.6965H7.13081C7.3716 8.9508 8.17095 6.28261 9.48021 3.85438L9.4815 3.85567ZM7.13081 13.3035H3C3.16348 15.1079 3.86924 16.8214 5.02522 18.2203C6.1812 19.6192 7.73371 20.6387 9.48021 21.1456C8.17095 18.7174 7.3716 16.0492 7.13081 13.3035ZM11.5508 21.4889C9.98569 19.0168 9.02614 16.2129 8.74957 13.3035H15.2491C14.9726 16.2129 14.013 19.0168 12.4479 21.4889C12.1491 21.5037 11.8496 21.5037 11.5508 21.4889ZM14.5198 21.1444C16.2661 20.6375 17.8185 19.6182 18.9744 18.2195C20.1304 16.8208 20.8363 15.1077 21 13.3035H16.8692C16.6284 16.0492 15.829 18.7174 14.5198 21.1456V21.1444ZM16.8692 11.6965H21C20.8365 9.89212 20.1308 8.17868 18.9748 6.77975C17.8188 5.38083 16.2663 4.36137 14.5198 3.85438C15.829 6.28261 16.6284 8.9508 16.8692 11.6965ZM11.5508 3.51113C11.8501 3.49629 12.1499 3.49629 12.4492 3.51113C14.0139 5.98331 14.973 8.78721 15.2491 11.6965H8.75086C9.03098 8.76922 9.99269 5.96276 11.5508 3.51113Z" fill="#9DA8B8"/>
</svg>
