<svg width="24" height="25" viewBox="0 0 24 25" fill="none" xmlns="http://www.w3.org/2000/svg">
<path fill-rule="evenodd" clip-rule="evenodd" d="M12 3.5C10.6705 3.5 9.12 3.53032 7.60856 3.57146L7.54716 3.57363C6.00893 3.61585 4.76763 3.64942 3.78977 3.80641C2.7706 3.96991 1.92447 4.28282 1.248 4.95736C0.569302 5.63407 0.273488 6.47102 0.133953 7.47255C8.31693e-09 8.43618 0 9.65751 0 11.1755V12.8256C0 14.3414 8.31693e-09 15.5627 0.133953 16.5274C0.272372 17.529 0.569302 18.3659 1.248 19.0426C1.92447 19.7183 2.7706 20.0301 3.78977 20.1936C4.76763 20.3506 6.00893 20.3841 7.54716 20.4264L7.60856 20.4285C9.12112 20.4697 10.6705 20.5 12 20.5C13.3295 20.5 14.88 20.4697 16.3914 20.4285L16.4528 20.4264C17.9911 20.3841 19.2324 20.3506 20.2102 20.1936C21.2294 20.0301 22.0755 19.7172 22.752 19.0426C23.4307 18.3659 23.7276 17.529 23.866 16.5274C24 15.5638 24 14.3425 24 12.8245V11.1744C24 9.65751 24 8.43618 23.866 7.47255C23.7276 6.47102 23.4307 5.63407 22.752 4.95736C22.0755 4.28173 21.2294 3.96991 20.2102 3.80641C19.2324 3.64942 17.9911 3.61585 16.4517 3.57363L16.3914 3.57146C14.928 3.52838 13.4641 3.50455 12 3.5ZM10.7408 14.8698C10.6135 14.9403 10.4694 14.9772 10.3228 14.9767C10.1761 14.9762 10.0322 14.9384 9.90542 14.867C9.77861 14.7957 9.67335 14.6933 9.60016 14.57C9.52697 14.4468 9.48842 14.3071 9.48837 14.1649V9.83399C9.48842 9.69179 9.52697 9.55209 9.60016 9.42887C9.67335 9.30565 9.77861 9.20324 9.90542 9.13187C10.0322 9.0605 10.1761 9.02269 10.3228 9.02221C10.4694 9.02173 10.6135 9.0586 10.7408 9.12913L14.6478 11.2946C14.7759 11.3657 14.8823 11.4683 14.9563 11.592C15.0303 11.7158 15.0693 11.8564 15.0693 11.9995C15.0693 12.1425 15.0303 12.2831 14.9563 12.4069C14.8823 12.5307 14.7759 12.6333 14.6478 12.7043L10.7408 14.8698Z" fill="#9DA8B8"/>
</svg>
